<?xml version="1.0" encoding="utf-8"?>
<!-- Generator: Adobe Illustrator 25.2.3, SVG Export Plug-In . SVG Version: 6.00 Build 0)  -->
<svg version="1.1" id="Capa_1" xmlns="http://www.w3.org/2000/svg" xmlns:xlink="http://www.w3.org/1999/xlink" x="0px" y="0px"
	 viewBox="0 0 102 102" style="enable-background:new 0 0 102 102;" xml:space="preserve">
<style type="text/css">
	.st0{fill:#300D0D;}
	.st1{fill:url(#XMLID_3_);}
	.st2{fill:#FFFFFF;}
	.st3{fill:url(#XMLID_5_);}
	.st4{fill:url(#XMLID_6_);}
	.st5{fill:url(#XMLID_7_);}
	.st6{fill:#960A52;}
</style>
<rect x="-799.5" y="546.8" class="st0" width="257.7" height="216.1"/>
<g id="XMLID_1714_">
	<radialGradient id="XMLID_3_" cx="-670.0218" cy="657.8478" r="73.1105" gradientUnits="userSpaceOnUse">
		<stop  offset="0" style="stop-color:#3733BF"/>
		<stop  offset="9.662384e-02" style="stop-color:#6663CE"/>
		<stop  offset="0.1959" style="stop-color:#8E8CDB"/>
		<stop  offset="0.3011" style="stop-color:#B1B0E6"/>
		<stop  offset="0.4114" style="stop-color:#CECDEF"/>
		<stop  offset="0.5287" style="stop-color:#E3E3F6"/>
		<stop  offset="0.6558" style="stop-color:#F3F3FB"/>
		<stop  offset="0.8004" style="stop-color:#FCFCFE"/>
		<stop  offset="1" style="stop-color:#FFFFFF"/>
	</radialGradient>
	<circle id="XMLID_1739_" class="st1" cx="-670" cy="657.8" r="73.1"/>
	<path id="XMLID_1732_" class="st2" d="M-665.1,680.9L-665.1,680.9c-24.6,0-44.6-20-44.6-44.6v0c0-24.6,20-44.6,44.6-44.6h0
		c24.6,0,44.6,20,44.6,44.6v0C-620.5,660.9-640.4,680.9-665.1,680.9z"/>
	<g id="XMLID_1720_">
		
			<linearGradient id="XMLID_5_" gradientUnits="userSpaceOnUse" x1="-1.6012" y1="66.9725" x2="-23.0358" y2="40.8975" gradientTransform="matrix(0 1 -1 0 -616.481 656.272)">
			<stop  offset="0" style="stop-color:#339CE9"/>
			<stop  offset="1" style="stop-color:#1D5BDF"/>
		</linearGradient>
		<path id="XMLID_1728_" class="st3" d="M-678.4,659L-678.4,659c-3.5-3.5-3.5-9.1,0-12.6l15.6-15.6c0.3-0.3,0.7-0.6,1-1
			c1.3-1.6,2.1-3.6,2.1-5.8c0-2.3-0.9-4.4-2.3-6l6,6l6.3,6.3c3.5,3.5,3.5,9.1,0,12.6l-6.3,6.3l-9.8,9.8
			C-669.3,662.5-674.9,662.5-678.4,659z"/>
		
			<linearGradient id="XMLID_6_" gradientUnits="userSpaceOnUse" x1="-24.4218" y1="41.065" x2="-41.4369" y2="66.2562" gradientTransform="matrix(0 1 -1 0 -616.481 656.272)">
			<stop  offset="0" style="stop-color:#339CE9"/>
			<stop  offset="1" style="stop-color:#1D5BDF"/>
		</linearGradient>
		<path id="XMLID_1726_" class="st4" d="M-668.6,636.6l-5.9-5.9c0,0,0,0-0.1-0.1l-0.6-0.6c0,0,0,0-0.1-0.1l-3.2-3.2
			c-3.5-3.5-3.5-9.1,0-12.6v0c3.5-3.5,9.1-3.5,12.6,0l3.3,3.3c0.1,0,0.1,0.1,0.2,0.1l0.3,0.3c0.1,0,0.1,0.1,0.1,0.2
			c1.4,1.6,2.3,3.7,2.3,6c0,2.2-0.8,4.2-2.1,5.8c-0.3,0.3-0.6,0.7-1,1L-668.6,636.6z"/>
		
			<linearGradient id="XMLID_7_" gradientUnits="userSpaceOnUse" x1="-29.5359" y1="45.9903" x2="-28.1226" y2="45.9903" gradientTransform="matrix(0 1 -1 0 -616.481 656.272)">
			<stop  offset="0" style="stop-color:#8941AF"/>
			<stop  offset="1" style="stop-color:#BC65D2"/>
		</linearGradient>
		<path id="XMLID_1721_" class="st5" d="M-663.2,628.1l1.4-1.4C-662.2,627.2-662.7,627.7-663.2,628.1z"/>
	</g>
	<rect id="XMLID_4_" x="-774.9" y="697.1" style="fill:none;" width="218.7" height="25.1"/>
	<text id="XMLID_1715_" transform="matrix(1 0 0 1 -712.0276 711.3394)"><tspan x="0" y="0" class="st2" style="font-family:'Montserrat-Bold'; font-size:19.2485px;">Bank</tspan><tspan x="52.6" y="0" class="st2" style="font-family:'Montserrat-Medium'; font-size:19.2485px;">App</tspan></text>
</g>
<text transform="matrix(1 0 0 1 -310.1392 725.6752)"><tspan x="0" y="0" style="font-family:'Montserrat-SemiBold'; font-size:20px;">Alke</tspan><tspan x="-9.5" y="20" style="font-family:'Montserrat-Regular'; font-size:20px;">Wallet</tspan></text>
<g>
	<circle class="st2" cx="-298.5" cy="622.9" r="50"/>
	<g>
		<path class="st6" d="M-279,644c-1-0.1-1.9-0.1-2.8-0.1c-0.9,0-1.7,0-2.6,0c-0.9,0-1.7,0-2.6,0c-0.9,0-1.7,0-2.6,0.1
			c-0.7-2-1.3-4-2-6.1c-0.7-2.1-1.4-4.1-2.2-6.2c-1.3,0-2.6-0.1-3.9-0.1c-1.3,0-2.6,0-3.9,0c-1.1,0-2.1,0-3.2,0
			c-1.1,0-2.1,0.1-3.2,0.1c-0.8,2.1-1.6,4.1-2.3,6.2c-0.7,2.1-1.3,4.1-1.9,6.1c-0.5-0.1-1-0.1-1.4-0.1s-0.9,0-1.4,0
			c-0.5,0-1,0-1.5,0c-0.5,0-1,0-1.6,0.1c0.5-1.1,1.1-2.5,2-4.4c0.8-1.9,1.7-4,2.7-6.3c1-2.4,2-4.9,3.1-7.6c1.1-2.7,2.2-5.4,3.4-8.2
			c1.1-2.8,2.2-5.5,3.3-8.2c1.1-2.7,2.1-5.2,3-7.5c0.4,0.1,0.8,0.2,1.2,0.2c0.4,0.1,0.8,0.1,1.2,0.1c0.4,0,0.8,0,1.2-0.1
			s0.8-0.1,1.2-0.2c1.3,3.5,2.7,7.2,4.2,11.1c1.5,3.9,3,7.8,4.5,11.6c1.5,3.8,3,7.4,4.4,10.8C-281.5,638.7-280.2,641.6-279,644z
			 M-300.6,613.5c-1.1,2.4-2.1,4.8-3,7.2c-0.9,2.4-1.9,4.8-2.7,7.3h11.2c-0.9-2.5-1.8-4.9-2.7-7.3
			C-298.7,618.4-299.6,616-300.6,613.5z"/>
	</g>
</g>
<g>
	<circle class="st2" cx="51" cy="51" r="50"/>
	<g>
		<path class="st6" d="M70.5,72.1c-1-0.1-1.9-0.1-2.8-0.1c-0.9,0-1.7,0-2.6,0c-0.9,0-1.7,0-2.6,0c-0.9,0-1.7,0-2.6,0.1
			c-0.7-2-1.3-4-2-6.1c-0.7-2.1-1.4-4.1-2.2-6.2c-1.3,0-2.6-0.1-3.9-0.1c-1.3,0-2.6,0-3.9,0c-1.1,0-2.1,0-3.2,0
			c-1.1,0-2.1,0.1-3.2,0.1c-0.8,2.1-1.6,4.1-2.3,6.2c-0.7,2.1-1.3,4.1-1.9,6.1C36.9,72,36.5,72,36,72s-0.9,0-1.4,0c-0.5,0-1,0-1.5,0
			c-0.5,0-1,0-1.6,0.1c0.5-1.1,1.1-2.5,2-4.4c0.8-1.9,1.7-4,2.7-6.3c1-2.4,2-4.9,3.1-7.6c1.1-2.7,2.2-5.4,3.4-8.2
			c1.1-2.8,2.2-5.5,3.3-8.2c1.1-2.7,2.1-5.2,3-7.5c0.4,0.1,0.8,0.2,1.2,0.2c0.4,0.1,0.8,0.1,1.2,0.1c0.4,0,0.8,0,1.2-0.1
			s0.8-0.1,1.2-0.2c1.3,3.5,2.7,7.2,4.2,11.1c1.5,3.9,3,7.8,4.5,11.6c1.5,3.8,3,7.4,4.4,10.8C68,66.9,69.3,69.7,70.5,72.1z
			 M48.9,41.7c-1.1,2.4-2.1,4.8-3,7.2c-0.9,2.4-1.9,4.8-2.7,7.3h11.2c-0.9-2.5-1.8-4.9-2.7-7.3C50.8,46.5,49.9,44.1,48.9,41.7z"/>
	</g>
</g>
</svg>
